<?xml version="1.0" encoding="utf-8"?>
<!-- Generator: Adobe Illustrator 18.1.1, SVG Export Plug-In . SVG Version: 6.00 Build 0)  -->
<svg version="1.1" id="Layer_1" xmlns="http://www.w3.org/2000/svg" xmlns:xlink="http://www.w3.org/1999/xlink" x="0px" y="0px"
	 width="32px" height="32px" viewBox="0 0 32 32" enable-background="new 0 0 32 32" xml:space="preserve">
<title>Combined Shape</title>
<path d="M18.8,16l12-12c0.8-0.8,0.7-2.1,0-2.8c-0.8-0.7-2-0.7-2.8,0l-12,12L4,1.1C3.2,0.4,1.9,0.4,1.1,1.2C0.4,2,0.4,3.2,1.1,4
	l12,12l-12,12c-0.8,0.8-0.7,2.1,0,2.8c0.8,0.7,2,0.7,2.8,0l12-12l12,12c0.8,0.8,2.1,0.7,2.8,0c0.7-0.8,0.7-2,0-2.8L18.8,16z" fill="currentColor" fill-rule="evenodd"/>
</svg>
