<?xml version="1.0" encoding="UTF-8"?>
<svg width="44px" height="32px" viewBox="0 0 44 32" version="1.1" xmlns="http://www.w3.org/2000/svg" xmlns:xlink="http://www.w3.org/1999/xlink">
    <!-- Generator: Sketch 46.2 (44496) - http://www.bohemiancoding.com/sketch -->
    <title>Icon</title>
    <desc>Created with Sketch.</desc>
    <defs></defs>
    <g id="Symbols" stroke="none" stroke-width="1" fill="none" fill-rule="evenodd">
        <g id="shortlist-panel-/-Register-cta" transform="translate(0.000000, -8.000000)" fill="#FFFFFF">
            <g id="Icon" transform="translate(0.000000, 8.000000)">
                <path d="M28,27 L23,27 L24,31 L25,31 L25,32 L13,32 L13,31 L14,31 L15,27 L3,27 C1.528,27 0,25.4706667 0,24 L0,2 C0,1.06237793 0.99987793,0 2,0 L35,0 C36.03125,0 37,1.03125 37,2 L37,8 L35,8 L35,2 L2,2 L2,23 L28,23 L28,10.5 C28,9.122 29.121,8 30.5,8 L42,8 C42.984375,8 44,9.01556396 44,10 L44,29.5 C44,30.878 42.878,32 41.5,32 L30.5,32 C29.121,32 28,30.878 28,29.5 L28,27 Z M18,25 L18,27 L20,27 L20,25 L18,25 Z M30,11 L30,28 L42,28 L42,11 L30,11 Z M35,29 L35,31 L37,31 L37,29 L35,29 Z" id="Combined-Shape"></path>
            </g>
        </g>
    </g>
</svg>