<svg xmlns="http://www.w3.org/2000/svg" width="32" height="32" viewBox="0 0 32 32">
  <title>externalLink2</title>
  <path d="M24.89,16.89a1.78,1.78,0,0,0-1.78,1.78v9.78H3.55V8.89h9.78a1.78,1.78,0,1,0,0-3.55H1.78A1.78,1.78,0,0,0,0,7.11V30.22A1.77,1.77,0,0,0,1.78,32H24.89a1.77,1.77,0,0,0,1.78-1.78V18.67a1.78,1.78,0,0,0-1.78-1.78" fill="currentColor"/>
  <path d="M30.35,0H20.41a1.65,1.65,0,0,0,0,3.31h5.94L8.49,21.17a1.66,1.66,0,0,0,2.34,2.34L28.69,5.65v5.94a1.65,1.65,0,1,0,3.31,0V1.65A1.65,1.65,0,0,0,30.35,0" fill="currentColor"/>
</svg>
