<?xml version="1.0" encoding="utf-8"?>
<!-- Generator: Adobe Illustrator 18.1.1, SVG Export Plug-In . SVG Version: 6.00 Build 0)  -->
<svg version="1.1" id="Layer_1" xmlns="http://www.w3.org/2000/svg" xmlns:xlink="http://www.w3.org/1999/xlink" x="0px" y="0px"
	 width="32px" height="32px" viewBox="0 0 32 32" enable-background="new 0 0 32 32" xml:space="preserve">
<title>icon</title>
<desc>Created with Sketch.</desc>
<g id="List-Gallery-" fill="currentColor" fill-rule="evenodd">
	<g id="XL-Gallery" transform="translate(-592.000000, -433.000000)">
		<g id="Gallery-top-section">
			<g id="Gallery-count" transform="translate(106.000000, 433.000000)">
				<g id="icon" transform="translate(486.000000, 1.000000)">
					<g id="Group-4" transform="translate(2.666667, 2.666667)">
						<path id="Fill-2" d="M17.6,13.3c0,2.8-1.4,4.3-4.3,4.3c-2.8,0-4.3-1.4-4.3-4.3c0-2.8,1.4-4.3,4.3-4.3
							C16.2,9.1,17.6,10.5,17.6,13.3z"/>
						<path id="Fill-3" d="M9.3,0L6.9,2.7H2.7C1.2,2.7,0,3.9,0,5.3v16C0,22.8,1.2,24,2.7,24H24c1.5,0,2.7-1.2,2.7-2.7v-16
							c0-1.5-1.2-2.7-2.7-2.7h-4.2L17.3,0H9.3z M13.3,20c-3.7,0-6.7-3-6.7-6.7s3-6.7,6.7-6.7s6.7,3,6.7,6.7S17,20,13.3,20z"/>
					</g>
				</g>
			</g>
		</g>
	</g>
</g>
</svg>
