<?xml version="1.0" encoding="UTF-8"?>
<svg width="54px" height="69px" viewBox="0 0 54 69" version="1.1" xmlns="http://www.w3.org/2000/svg" xmlns:xlink="http://www.w3.org/1999/xlink">
    <!-- Generator: Sketch 45.2 (43514) - http://www.bohemiancoding.com/sketch -->
    <title>Group</title>
    <desc>Created with Sketch.</desc>
    <defs>
        <path d="M16,0 C7.178,0 0,7.176 0,16 C0,24.488 14.544,46.614 15.166,47.55 C15.35,47.83 15.664,48 16,48 C16.336,48 16.648,47.83 16.834,47.55 C17.454,46.614 32,24.488 32,16 C32,7.176 24.822,0 16,0" id="path-1"></path>
        <filter x="-54.7%" y="-32.3%" width="209.4%" height="172.9%" filterUnits="objectBoundingBox" id="filter-2">
            <feOffset dx="0" dy="2" in="SourceAlpha" result="shadowOffsetOuter1"></feOffset>
            <feGaussianBlur stdDeviation="5.5" in="shadowOffsetOuter1" result="shadowBlurOuter1"></feGaussianBlur>
            <feColorMatrix values="0 0 0 0 0   0 0 0 0 0   0 0 0 0 0  0 0 0 0.4 0" type="matrix" in="shadowBlurOuter1"></feColorMatrix>
        </filter>
    </defs>
    <g id="Page-1" stroke="none" stroke-width="1" fill="none" fill-rule="evenodd">
        <g id="Group" transform="translate(11.000000, 9.000000)">
            <g id="Fill-7">
                <use fill="black" fill-opacity="1" filter="url(#filter-2)" xlink:href="#path-1"></use>
                <use fill="#D9172F" fill-rule="evenodd" xlink:href="#path-1"></use>
            </g>
            <path d="M16,23 C12.14,23 9,19.858 9,16 C9,12.142 12.14,9 16,9 C19.86,9 23,12.142 23,16 C23,19.858 19.86,23 16,23" id="Path" fill="#FFFFFF"></path>
        </g>
    </g>
</svg>