<?xml version="1.0" encoding="UTF-8"?>
<svg width="140px" height="147px" viewBox="0 0 140 147" version="1.1" xmlns="http://www.w3.org/2000/svg" xmlns:xlink="http://www.w3.org/1999/xlink">
    <!-- Generator: Sketch 46.2 (44496) - http://www.bohemiancoding.com/sketch -->
    <title>Fill 11 Copy 2</title>
    <desc>Created with Sketch.</desc>
    <defs></defs>
    <g id="Page-1" stroke="none" stroke-width="1" fill="none" fill-rule="evenodd" fill-opacity="0.2">
        <path d="M105.123821,114 C94.990855,106.900722 83.2692699,101.685921 72.2978662,98.7075812 L72,98.6101083 L84.0856438,81 C99.4919437,84.2761733 110,92.5776173 110,101.138989 C110,104.956679 108.212803,110.052347 105.267238,113.810469 L105.123821,114 Z M77.072349,56 C74.9777608,55.7077061 68.2750787,54.5495603 66.6374916,54.1745417 C61.186122,53.0384558 34,44.9148904 34,32.7819347 C34,19 51.5727785,19 60.0109764,19 C61.8716236,19 81.6641214,20.7427336 91,33.7194813 C90.9020712,33.9069906 79.5640928,52.0898793 77.072349,56 Z M137.132491,37.5693341 L137.405587,37.3442698 C138.74922,36.0542669 140,33.4083888 140,31.8274491 C140,29.9885089 139.322722,28.3087605 138.104713,27.0846302 C136.924938,25.745223 135.095194,24.9876894 132.675562,24.8120295 C132.468009,24.7955613 131.288233,24.7406676 131.211767,24.7406676 C125.280119,24.7955613 118.884207,28.5283355 112.138733,35.0771584 C106.212547,40.8245327 103.97862,45.0842868 100.237203,50.9853635 C97.2003745,55.7830762 95.7475031,58.0501876 94.9336767,59.3511692 C93.7921348,59.2084454 86.9155743,58.1215494 80.7545256,56.7821422 C82.7372035,53.5598798 88.5923845,43.2837722 95.2340824,33.6773681 C100.062422,26.6948847 105.901217,20.3766155 108.828808,16.7755863 C109.287609,16.2156701 109.730025,15.8863077 110.265293,15.5843922 C110.664014,15.3593278 111.253901,15.0629017 111.450531,14.8378373 C111.472378,14.568858 110.674938,13.7783882 110.53839,13.6740901 C110.145131,13.7289838 109.910268,13.8168138 109.577091,13.981495 C109.123752,14.1955806 108.517478,14.4920068 107.676342,14.4920068 C106.605805,14.4920068 105.502497,13.5807707 103.497971,11.9229799 C98.4620787,7.75654518 89.0839576,0.0275069274 72.6053371,6.00585769e-05 C44.3781211,-0.0438549315 27.7137953,24.0050915 27.9213483,39.9242754 C28.0524345,49.8435738 29.9477216,60.7399807 34.8962235,65.3236078 C39.9485019,69.9950649 48.4527154,73.4094554 63.3255306,76.9391227 L64.3250624,77.2026126 L61.9382022,79.8484908 C58.0274657,83.1805407 55.2145755,86.3808456 47.8792135,86.5619949 C43.2420412,86.5619949 41.0791199,84.9755659 39.4186954,83.4879456 L39.0691323,83.6361587 C39.4569288,84.4156498 40.4673845,86.1557812 41.772784,87.7586784 C43.4441323,89.7897467 44.9789326,90.8546852 46.3553371,90.926047 C46.5792759,90.9864301 48.5237203,91.4804738 51.6643258,90.5033653 C55.7225343,89.2353199 60.1029963,86.1942069 64.3305243,81.4349198 L65.9636392,79.6069583 L67.602216,77.7844862 L78.2201935,79.6783202 C79.4327403,79.9527889 80.6289014,80.0900232 81.6775905,80.3974282 L77.3025905,87.0505492 C71.7860487,95.3724398 69.6777466,97.9689136 69.6777466,97.9689136 C69.6777466,97.9689136 65.9964107,97.4364443 65.0241885,97.2498056 C61.9982834,96.6459745 57.2354869,96.3440589 50.6484082,96.3989527 C37.7582709,96.2781864 19.9469413,101.042963 9.2088015,111.736263 C6.99672285,113.942991 5.1724407,116.330869 3.77965044,118.839513 C1.27262797,123.170629 0,127.913447 0,132.958182 C0,139.435643 4.26576155,147 16.3147628,147 C32.4383583,147 46.4645755,131.777967 53.8654806,123.59331 L55.0507179,122.275861 C57.2518727,119.860536 58.2623283,118.169809 59.065231,117.307977 C67.5912921,119.668408 81.4427278,125.448719 93.568196,133.397332 C96.0315231,130.888688 103.268571,122.275861 110.052278,112.191881 C113.771848,106.658592 122.352528,93.7969895 122.658396,83.9270955 C122.958801,74.4743939 114.110487,63.1223689 97.7520287,59.7518934 C98.2763733,58.6649974 99.2540574,56.9962278 101.706461,53.2030705 C108.430087,42.7897285 114.498283,31.9591941 127.284644,31.9591941 C129.57319,31.9591941 134.330524,32.4806846 136.908552,37.2674185 C136.985019,37.377206 137.028714,37.4485679 137.132491,37.5693341 Z M41.0694989,132.470112 C37.9544236,135.142346 34.8229532,137.40517 31.7570633,139.197724 C28.5326872,140.984746 25.3793566,142.295967 22.2096309,143.092658 C21.1658074,143.352689 20.2968653,143.535264 19.4935038,143.662513 C18.1709631,143.872751 16.8484224,143.983402 15.5641369,144 C14.957517,144 14.339967,143.966805 13.6131161,143.900414 C7.07145803,143.253102 3,139.347104 3,133.681746 C3,118.677401 27.9916478,114.013439 37.0964116,114.013439 L39.0146422,114.002374 C43.184471,113.969179 46.1028047,114.267938 54.2839761,115.92771 L56,116.386914 C52.3438853,121.216853 48.1030109,125.864217 44.1025985,129.654031 C43.0697051,130.627764 42.1078573,131.579367 41.0694989,132.470112 L41.0694989,132.470112 Z" id="Fill-11-Copy-2" fill="#FFFFFF"></path>
    </g>
</svg>