<svg width="32" height="32" viewBox="0 0 32 32" xmlns="http://www.w3.org/2000/svg">
  <g fill="#D7DBE3" fill-rule="evenodd">
    <path d="M16 0c-.368 0-.667.3-.667.668 0 .368.3.667.667.667 8.087 0 14.667 6.58 14.667 14.666 0 .37.298.668.666.668.368 0 .667-.3.667-.667 0-8.82-7.177-16-16-16"/>
    <path d="M16 6.668c5.147 0 9.333 4.188 9.333 9.333 0 .37.3.668.667.668.368 0 .667-.3.667-.667 0-5.88-4.786-10.665-10.667-10.665-.368 0-.667.3-.667.666 0 .37.3.668.667.668M16 12c2.205 0 4 1.796 4 4 0 .37.3.668.667.668.368 0 .666-.3.666-.667 0-2.94-2.392-5.332-5.333-5.332-.368 0-.667.3-.667.667 0 .368.3.666.667.666M.775 13.714C5.34 20.626 11.38 26.672 18.303 31.24c1.804 1.2 4.268 1.014 5.872-.593l1.55-1.552c1.306-1.308 1.295-3.416-.005-4.713l-2.828-2.828c-1.307-1.3-3.668-1.402-5.23.517-2.69-2.248-5.33-4.86-7.718-7.718 1.92-1.56 1.817-3.92.52-5.23l-2.83-2.827c-1.297-1.3-3.405-1.31-4.713-.005L1.37 7.843c-1.607 1.6-1.793 4.065-.595 5.87"/>
  </g>
</svg>