<svg width="32" height="32" viewBox="0 0 32 32" xmlns="http://www.w3.org/2000/svg">
  <title>Search</title>
  <path d="M21.08 18.573l10.4 10.4c.693.692.693 1.815 0 2.507-.692.693-1.815.693-2.508 0l-10.4-10.4c-1.933 1.42-4.32 2.26-6.902 2.26C5.225 23.34 0 18.115 0 11.67S5.225 0 11.67 0s11.67 5.225 11.67 11.67c0 2.583-.84 4.97-2.26 6.903zm-1.287-6.903c0-4.486-3.637-8.123-8.123-8.123-4.486 0-8.123 3.637-8.123 8.123 0 4.486 3.637 8.123 8.123 8.123 4.486 0 8.123-3.637 8.123-8.123z" fill-rule="nonzero" fill="#0A1633"/>
</svg>