<svg width="32" height="32" viewBox="0 0 32 32" xmlns="http://www.w3.org/2000/svg"><title>user</title><path d="M16 33h16s0-2.862-1.391-5.645c-1.038-2.076-5.566-3.478-11.13-5.565v-4.174s2.086-1.391 2.086-4.174c.696 0 1.392-2.783 0-3.478 0-.413 1.863-3.897 1.392-6.261C22.26.225 12.522.225 11.827 3.007c-4.175 0-1.392 6.392-1.392 6.957-1.392.695-.696 3.478 0 3.478 0 2.783 2.087 4.174 2.087 4.174v4.174c-5.565 2.087-10.094 3.49-11.13 5.565C0 30.138 0 33 0 33h16z" stroke="currentColor" stroke-width="1.5" fill="none" stroke-linejoin="round"/></svg>