<svg width="32" height="32" viewBox="0 0 32 32" xmlns="http://www.w3.org/2000/svg"><title>slice</title><g stroke="currentColor" fill="currentColor"><path d="M8.5 2.9h15c1.6 0 3 .7 3.9 1.7 1 .9 1.7 2.3 1.7 3.9v15c0 1.6-.7 3-1.7 3.9-.9 1-2.3 1.7-3.9 1.7h-15c-1.6 0-3-.7-3.9-1.7-1-.9-1.7-2.3-1.7-3.9v-15c0-1.6.7-3 1.7-3.9.9-1.1 2.3-1.7 3.9-1.7m15-1.9h-15C4.4 1 1 4.4 1 8.5v15C1 27.6 4.4 31 8.5 31h15c4.1 0 7.5-3.4 7.5-7.5v-15C31 4.4 27.6 1 23.5 1" stroke-width="2"/><path d="M16 21c-1.4 0-2.6-.6-3.5-1.5-.9-.9-1.5-2.1-1.5-3.5s.6-2.6 1.5-3.5c.9-.9 2.2-1.5 3.5-1.5 1.4 0 2.6.6 3.5 1.5.9.9 1.5 2.2 1.5 3.5 0 1.4-.6 2.6-1.5 3.5-.9.9-2.1 1.5-3.5 1.5m0-12c-3.9 0-7 3.1-7 7s3.1 7 7 7 7-3.1 7-7-3.1-7-7-7" stroke-width="2"/><path d="M24 9.5c-.8 0-1.5-.7-1.5-1.5s.7-1.5 1.5-1.5 1.5.7 1.5 1.5-.7 1.5-1.5 1.5m0-4c-1.4 0-2.5 1.1-2.5 2.5s1.1 2.5 2.5 2.5 2.5-1.1 2.5-2.5-1.1-2.5-2.5-2.5"/></g></svg>