<svg width="32" height="32" viewBox="0 0 32 32" xmlns="http://www.w3.org/2000/svg"><title>twitter</title><path d="M32 6.371c-1.16.525-2.139.542-3.177.023 1.34-.811 1.4-1.38 1.884-2.916a12.91 12.91 0 0 1-4.115 1.596A6.431 6.431 0 0 0 21.864 3c-3.578 0-6.479 2.94-6.479 6.564 0 .515.058 1.016.167 1.496C10.167 10.787 5.394 8.173 2.2 4.2a6.612 6.612 0 0 0-.879 3.302 6.584 6.584 0 0 0 2.883 5.463 6.402 6.402 0 0 1-2.934-.82l-.001.082c0 3.18 2.234 5.833 5.198 6.437a6.43 6.43 0 0 1-2.927.112c.825 2.607 3.218 4.505 6.052 4.559A12.903 12.903 0 0 1 0 26.052 18.167 18.167 0 0 0 9.93 29c11.919 0 18.433-10.001 18.433-18.675 0-.286-.004-.566-.017-.85C29.61 8.551 31.132 7.69 32 6.371" fill="currentColor" fill-rule="evenodd"/></svg>