<svg width="32" height="32" viewBox="0 0 32 32" xmlns="http://www.w3.org/2000/svg"><title>whatsapp</title><path d="M22.189 24.818c-.856.078-.856.701-5.6-1.165-4.74-1.868-7.733-6.732-7.967-7.044-2.187-2.91-2.762-5.991-.273-8.715.79-.86 2.748-.824 3.19.235.387.934 1.32 3.229 1.438 3.462.117.235.194.507.037.817-.186.375-.38.814-1.166 1.596-.233.233-.475.484-.203.95.272.468 1.206 1.995 2.594 3.231 1.782 1.59 3.284 2.081 3.75 2.315.467.233.74.195 1.012-.117.271-.313 1.167-1.362 1.476-1.829.312-.467.624-.388 1.05-.233.428.155 2.72 1.283 3.188 1.518.466.23.778.35.895.544.701 1.177-.963 4.212-3.421 4.435M16 0C7.178 0 0 7.177 0 16c0 3.5 1.133 6.744 3.048 9.38L1.05 31.324l6.149-1.97A15.897 15.897 0 0 0 16 32c8.821 0 16-7.177 16-16 0-8.822-7.178-16-16-16" fill="currentColor" fill-rule="evenodd"/></svg>