<?xml version="1.0" encoding="utf-8"?>
<!-- Generator: Adobe Illustrator 18.1.1, SVG Export Plug-In . SVG Version: 6.00 Build 0)  -->
<svg version="1.1" id="Layer_1" xmlns="http://www.w3.org/2000/svg" xmlns:xlink="http://www.w3.org/1999/xlink" x="0px" y="0px"
	 width="294px" height="33.3px" viewBox="131 -0.6 294 33.3" enable-background="new 131 -0.6 294 33.3" xml:space="preserve">
<g>
	<path fill="#FFFFFF" d="M145.9,9.1c-2.4,0-5.2,1-6.8,3.1V-0.6H131v4.7l2.8,0.2V32h4.8l0.3-2.6c1.7,2.2,4.5,3.1,7,3.1
		c6.4,0,10.8-5.5,10.8-11.6C156.6,14.3,152,9.1,145.9,9.1z M144.8,28c-2.1,0-4.2-0.9-5.7-2.8v-7.9c1.3-2.4,3.7-3.5,5.8-3.5
		c3.9,0,6.4,3.4,6.4,7C151.3,24.2,149.2,28,144.8,28z"/>
	<path fill="#FFFFFF" d="M165.3,12.8L165,9.6h-4.8V32h5.3V17c1.1-1.9,2.7-3,4.6-3c0.8,0,1.5,0.1,2.1,0.5l1.2-4.9
		c-0.8-0.3-1.7-0.4-2.7-0.4C168.5,9.1,166.7,10.7,165.3,12.8z"/>
	<rect x="176" y="1.1" fill="#FFFFFF" width="5.3" height="4.9"/>
	<rect x="176" y="9.7" fill="#FFFFFF" width="5.3" height="22.4"/>
	<path fill="#FFFFFF" d="M195.3,18.7c-2-0.8-3.9-1.6-3.9-3.1c0-1.3,1.1-2.2,2.7-2.2c1.7,0,3.3,0.8,4.4,1.7l3-3.2
		c-2-1.8-4.6-2.7-7.4-2.7c-4,0-7.7,2.2-7.7,6.8c0,4,3.4,5.5,6,6.6c2,0.8,4.2,1.7,4.2,3.3c0,1.8-1.7,2.6-3.3,2.6
		c-2,0-3.5-0.9-5.1-2.5l-3.2,3c2.2,2.4,5.2,3.7,8.5,3.7c4.3,0,8.4-2.2,8.4-7.1C201.9,21.3,198.2,19.8,195.3,18.7z"/>
	<path fill="#FFFFFF" d="M218.5,9.1c-2.4,0-5.2,1-6.8,3.1V-0.6h-5.3V32h4.8l0.3-2.6c1.7,2.2,4.5,3.1,7,3.1c6.4,0,10.8-5.5,10.8-11.6
		C229.2,14.3,224.6,9.1,218.5,9.1z M217.4,28c-2.1,0-4.2-0.9-5.7-2.8v-7.9c1.3-2.4,3.7-3.5,5.8-3.5c3.9,0,6.4,3.4,6.4,7
		C223.9,24.2,221.8,28,217.4,28z"/>
	<path fill="#FFFFFF" d="M242.4,9.1c-3.2,0-6.6,0.9-9.3,2.2l1.4,4c1.9-1,4.4-2,6.9-2c3.4,0,4.8,1.8,4.8,4.9v0.5
		c-1.7-0.3-3-0.5-4.2-0.5c-4.7,0-9.9,1.7-9.9,7.3c0,4.7,3.9,7,8,7c2.6,0,4.7-0.7,6.3-2.6l0.3,2.1h4.7V18.5
		C251.5,12.7,248.7,9.1,242.4,9.1z M246.2,26.4c-1.5,1.3-3.1,2.2-5.1,2.2s-3.8-1-3.8-3.3c0-2.9,3-3.7,5.5-3.7c1,0,2.1,0.1,3.4,0.4
		V26.4z"/>
	<path fill="#FFFFFF" d="M269.3,9.1c-2.7,0-5.3,1.3-7.1,3.8l-0.3-3.3h-4.8V32h5.3V17.2c1.3-2.1,3.5-3.4,5.6-3.4
		c1.6,0,2.7,0.6,3.4,1.7c0.8,1.4,0.9,3.5,0.9,5.3V32h5.3V20.4c0-3.3-0.3-6.2-2-8.4C274,10.2,271.9,9.1,269.3,9.1z"/>
	<path fill="#FFFFFF" d="M292.8,9.1c-6.3,0-11.3,5.1-11.3,11.9c0,6.6,4.3,11.6,11.3,11.6c4.6,0,7.6-1.7,10-5.4l-3.6-2.4
		c-1.4,2.3-3.3,3.5-6.2,3.5c-3.7,0-5.9-2.7-6.3-6.1H303c0.1-0.8,0.2-1.8,0.2-2.7C303.4,13.5,298.9,9.1,292.8,9.1z M287.2,18.4
		c0.7-2.9,2.6-5,5.8-5c2.8,0,4.9,2.1,5,5H287.2z"/>
	<path fill="#FFFFFF" d="M327,28c-1.7,0-2.3-1-2.4-2.7c0-0.7,0-1.2,0-1.9v-9.3h5.9V9.7h-5.9V4.5h-4.7l-0.6,5.1h-2.8V14h2.8v10
		c0,1.5,0.1,3,0.6,4.1c0.9,2.6,3,4.3,6.4,4.3c1.7,0,3.6-0.4,4.9-1.2l-1.6-4C328.8,27.7,328,28,327,28z"/>
	<rect x="335.1" y="9.7" fill="#FFFFFF" width="5.3" height="22.4"/>
	<rect x="335.1" y="1.1" fill="#FFFFFF" width="5.3" height="4.9"/>
	<path fill="#FFFFFF" d="M371.9,9.1c-2.7,0-5.6,1-7.6,3.9c-0.2-0.3-0.3-0.6-0.5-0.9c-1.4-2-3.6-3-6-3c-2.3,0-5,1.2-6.7,3.5l-0.2-3
		h-4.8V32h5.3V16.7c1.3-1.6,3.3-3,5-3c1.4,0,2.5,0.5,3.1,1.6c0.9,1.4,0.9,3.6,0.9,5.5V32h5.3V20.4c0-1.3,0-2.5-0.2-3.6
		c1.3-1.9,3.3-3,5.1-3c1.6,0,2.7,0.6,3.3,1.7c0.8,1.4,0.8,3.5,0.8,5.3V32h5.3V20.4c0-3.3-0.3-6.3-2-8.5
		C376.6,10.2,374.5,9.1,371.9,9.1z"/>
	<path fill="#FFFFFF" d="M395.4,9.1c-6.3,0-11.3,5.1-11.3,11.9c0,6.6,4.3,11.6,11.3,11.6c4.6,0,7.6-1.7,10-5.4l-3.6-2.4
		c-1.4,2.3-3.3,3.5-6.2,3.5c-3.7,0-5.9-2.7-6.3-6.1h16.3c0.1-0.8,0.2-1.8,0.2-2.7C405.9,13.5,401.5,9.1,395.4,9.1z M389.7,18.4
		c0.7-2.9,2.6-5,5.8-5c2.8,0,4.9,2.1,5,5H389.7z"/>
	<path fill="#FFFFFF" d="M418.5,18.7c-2-0.8-3.9-1.6-3.9-3.1c0-1.3,1.1-2.2,2.7-2.2c1.7,0,3.3,0.8,4.4,1.7l3-3.2
		c-2-1.8-4.6-2.7-7.4-2.7c-4,0-7.7,2.2-7.7,6.8c0,4,3.4,5.5,6,6.6c2,0.8,4.2,1.7,4.2,3.3c0,1.8-1.7,2.6-3.3,2.6
		c-2,0-3.5-0.9-5.1-2.5l-3.2,3c2.2,2.4,5.2,3.7,8.5,3.7c4.3,0,8.4-2.2,8.4-7.1C425,21.3,421.4,19.8,418.5,18.7z"/>
</g>
</svg>
