<svg width="64" height="36" viewBox="0 0 64 36" xmlns="http://www.w3.org/2000/svg"><title>fairfaxmedia</title><g fill="none" fill-rule="evenodd"><path d="M35.423 17.608c0 9.725-7.93 17.608-17.712 17.608C7.93 35.216 0 27.333 0 17.608 0 7.883 7.93 0 17.711 0c9.782 0 17.712 7.883 17.712 17.608z" fill="#FFF"/><path d="M31.002 18.175l1.601-2.638h-1.007l-1.108 1.925-1.12-1.925h-1.343l1.667 2.704-1.88 2.994h1.086l1.299-2.214 1.32 2.214h1.355l-1.87-3.06zm-5.127 2.026c-.268.121-.526.21-.783.21-.65 0-.985-.3-.985-.901 0-.49.268-.802.816-.88.269-.044.952-.066.952-.066V20.2zm-.604-4.753c-.537 0-.985.077-1.534.245v.846a4.284 4.284 0 0 1 1.198-.179c.672 0 .94.268.94.913v.59s-.952.021-1.4.067c-1.052.11-1.59.679-1.59 1.701 0 1.014.605 1.694 1.557 1.694.38 0 .74-.1 1.512-.447l.1.357h1.019v-3.784c0-.857-.1-1.258-.403-1.558-.28-.29-.795-.445-1.399-.445zm-3.605-.59c0-.69.213-.924.885-.924.178 0 .481.022.66.044v-.801a6.18 6.18 0 0 0-1.052-.1c-1.143 0-1.691.579-1.691 1.792v.668l-.694.11v.68h.694v4.908h1.198v-4.908h1.176v-.79h-1.176v-.679zM17.1 16.071l-.101-.534h-1.02v5.698h1.199v-4.407c.18-.212.604-.334.918-.334.426 0 .627.078.929.244v-1.045a1.2 1.2 0 0 0-.75-.245c-.436 0-.929.311-1.175.623zm-3.84 5.164h1.198v-5.698H13.26v5.698zm.604-7.946c-.481 0-.738.256-.738.734s.245.724.727.724.739-.256.739-.736c0-.478-.246-.722-.728-.722zM10.56 20.2c-.268.121-.526.21-.783.21-.649 0-.985-.3-.985-.901 0-.49.269-.802.817-.88.269-.044.951-.066.951-.066V20.2zm-.603-4.753a4.95 4.95 0 0 0-1.534.245v.846a4.288 4.288 0 0 1 1.198-.179c.67 0 .94.268.94.913v.59s-.952.021-1.4.067c-1.051.11-1.59.679-1.59 1.701 0 1.014.605 1.694 1.557 1.694.381 0 .739-.1 1.512-.447l.1.357h1.019V17.45c0-.857-.102-1.258-.404-1.558-.28-.29-.795-.445-1.398-.445zm-6.65 5.787H4.56v-3.629h2.306v-.912H4.561V14.29h2.877v-.912H3.307v7.857z" fill="#0A1633"/><path fill="#FFF" d="M41.164 19.78l-2.226-6.555h-1.407v8.163h1.025v-6.174l2.098 6.174h.993l2.086-6.18v6.18h1.037v-8.163h-1.453zm5.856-1.993c.094-.907.576-1.485 1.255-1.485.927 0 1.122.728 1.122 1.339 0 .036-.003.09-.006.142v.004H47.02zm1.3-2.404c-1.492 0-2.349 1.148-2.349 3.148 0 1.955.885 2.947 2.629 2.947a7.18 7.18 0 0 0 1.486-.17l.123-.025v-.902l-.184.036a7.48 7.48 0 0 1-1.269.142c-1.187 0-1.72-.557-1.758-1.853h3.37l.01-.143s.033-.543.033-.71c0-1.593-.742-2.47-2.091-2.47zm5.507.919c.375 0 .795.137 1.01.324v3.69c-.32.15-.699.243-.987.243-1.153 0-1.738-.7-1.738-2.084 0-1.36.641-2.173 1.715-2.173zm1.01-.667a2.738 2.738 0 0 0-1.077-.251c-1.962 0-2.662 1.614-2.662 3.124 0 1.888.963 2.97 2.64 2.97.39 0 .864-.141 1.19-.301l.058.211h.843v-8.386h-.991v2.633zm2.919-2.155c-.407 0-.613.235-.613.699 0 .462.197.687.602.687.408 0 .625-.241.625-.698 0-.463-.2-.688-.614-.688m-.5 7.909h.991v-5.916h-.991zm5.069-2.743v1.49c-.274.192-.867.423-1.19.423-.66 0-.942-.278-.942-.927 0-.525.292-.813.92-.905.223-.033.9-.066 1.212-.08m.512-2.827l-.003-.003c-.278-.275-.775-.434-1.363-.434-.462 0-1.002.112-1.297.221l-.099.037v.914l.206-.073c.28-.1.775-.18 1.101-.18.687 0 .943.257.943.948v.512c-.341.02-1.18.068-1.541.104-1.013.1-1.594.781-1.594 1.867 0 1.06.685 1.745 1.744 1.745.545 0 .907-.096 1.509-.418l.1.329h.773V17.45c0-.942-.192-1.333-.48-1.631"/></g></svg>