<?xml version="1.0" encoding="UTF-8" standalone="no"?>
<svg width="224px" height="12px" viewBox="0 0 224 12" version="1.1" xmlns="http://www.w3.org/2000/svg" xmlns:xlink="http://www.w3.org/1999/xlink">
    <!-- Generator: Sketch 44.1 (41455) - http://www.bohemiancoding.com/sketch -->
    <title>Independent Always</title>
    <desc>Created with Sketch.</desc>
    <defs></defs>
    <g id="Symbols" stroke="none" stroke-width="1" fill="none" fill-rule="evenodd">
        <g id="Independent-Always" fill="#FFFFFF">
            <g transform="translate(0.000000, 0.217830)">
                <path d="M0.943648408,10.6745625 C1.22516433,10.65825 1.86497325,10.5785 2.0697121,10.5005625 C2.4426293,10.364625 2.55413885,10.1 2.55413885,9.75925 L2.55413885,1.809625 C2.55413885,1.4725 2.4426293,1.222375 2.0697121,1.0683125 C1.78819618,0.961375 1.23978854,0.8055 0.943648408,0.7746875 L0.943648408,0.432125 L6.24126624,0.432125 L6.24126624,0.7746875 C5.95975032,0.8055 5.38026624,0.896125 5.10057834,0.9885625 C4.72583312,1.1154375 4.63260382,1.3945625 4.63260382,1.7316875 L4.63260382,9.683125 C4.63260382,10.023875 4.75690955,10.2685625 5.10057834,10.4244375 C5.28703694,10.5005625 5.95975032,10.6419375 6.24126624,10.6745625 L6.24126624,11.0135 L0.943648408,11.0135 L0.943648408,10.6745625 Z" id="Fill-4"></path>
                <path d="M12.0189236,4.27226875 L12.0189236,8.64583125 C12.0189236,9.59920625 12.1688217,10.1230188 12.4448535,10.3459563 C12.6587325,10.5199563 13.4429554,10.7157063 13.6696306,10.7410813 L13.6696306,11.0147688 L9.98067516,11.0147688 L9.98067516,10.7410813 C10.1927261,10.7157063 10.9184522,10.5543938 11.1323312,10.4057688 C11.4193312,10.1955188 11.5308408,9.66264375 11.5308408,8.70926875 L11.5308408,4.37195625 C11.5308408,4.00039375 11.406535,3.62520625 11.1451274,3.39139375 C10.8562994,3.14489375 10.2822994,2.89658125 9.88013376,2.83314375 L9.88013376,2.54858125 L12.693465,2.54858125 L17.5816051,8.70926875 L17.5816051,4.89214375 C17.5816051,3.97501875 17.431707,3.40226875 17.1575032,3.20651875 C16.9326561,3.04520625 16.1813376,2.84583125 15.9308981,2.82226875 L15.9308981,2.54858125 L19.6052293,2.54858125 L19.6052293,2.82226875 C19.3931783,2.84583125 18.7076688,2.97089375 18.4554013,3.14489375 C18.1556051,3.35333125 18.0568917,3.94964375 18.0568917,4.81601875 L18.0568917,11.0763938 L17.4189108,11.0763938 L12.0189236,4.27226875 Z" id="Fill-6"></path>
                <path d="M23.3298312,10.7399937 C23.5820987,10.7273062 24.0793217,10.6674937 24.2438439,10.6058687 C24.5418121,10.4916812 24.6295573,10.2687437 24.6295573,9.99686875 L24.6295573,3.66580625 C24.6295573,3.39211875 24.5418121,3.15468125 24.2438439,3.03143125 C23.9568439,2.89549375 23.604035,2.84655625 23.3791879,2.82118125 L23.3791879,2.54749375 L27.5050414,2.54749375 C29.2544618,2.54749375 32.2067229,3.44286875 32.2067229,6.83768125 C32.2067229,9.72499375 29.7169522,11.0118687 27.2546019,11.0118687 L23.3298312,11.0118687 L23.3298312,10.7399937 Z M30.3055764,6.82499375 C30.3055764,4.56843125 29.1173599,2.92268125 27.2454618,2.92268125 C26.9803981,2.92268125 26.541672,2.93174375 26.2930605,2.94443125 L26.2930605,9.74855625 C26.331449,10.3321812 26.6787739,10.6421187 27.4922452,10.6421187 C29.4573726,10.6421187 30.3055764,9.05618125 30.3055764,6.82499375 L30.3055764,6.82499375 Z" id="Fill-8"></path>
                <path d="M36.3294688,10.7399937 C36.5543159,10.7164312 37.1283159,10.6529937 37.3038064,10.5786812 C37.6036025,10.4699312 37.6913478,10.2578687 37.6913478,9.97330625 L37.6913478,3.66580625 C37.6913478,3.39211875 37.6163987,3.18186875 37.3038064,3.05499375 C37.0679911,2.95711875 36.5543159,2.84655625 36.3294688,2.82118125 L36.3294688,2.54749375 L43.4295197,2.54749375 L43.4295197,4.60649375 L43.091335,4.60649375 C42.9414369,4.05005625 42.2778637,3.04411875 41.6928955,2.95711875 C41.3930994,2.92268125 41.0530866,2.90999375 40.6655452,2.90999375 L39.354851,2.90999375 L39.354851,6.44074375 L40.292628,6.44074375 C40.9781376,6.44074375 41.2048127,6.22868125 41.365679,6.06918125 C41.5777299,5.86074375 41.7532204,5.23724375 41.7916089,4.91643125 L42.1297936,4.91643125 L42.1297936,8.39824375 L41.7916089,8.39824375 C41.7532204,8.02668125 41.5429975,7.37055625 41.365679,7.18386875 C41.1920166,7.00080625 40.9543732,6.81230625 40.292628,6.81230625 L39.354851,6.81230625 L39.354851,9.55280625 C39.354851,10.5188687 39.5669019,10.6421187 40.7660866,10.6421187 C41.5539656,10.6421187 42.4039975,10.6529937 42.7037936,10.3575562 C43.1425197,9.92255625 43.6287745,8.93293125 43.7805006,8.53418125 L44.091265,8.53418125 L43.9303987,11.0118687 L36.3294688,11.0118687 L36.3294688,10.7399937 Z" id="Fill-10"></path>
                <path d="M48.0670376,10.7399937 C48.2918847,10.7273062 48.8293242,10.6529937 48.9920185,10.5913687 C49.2918146,10.4789937 49.3795599,10.2469937 49.3795599,9.97330625 L49.3795599,3.65130625 C49.3795599,3.37761875 49.3046108,3.14561875 48.9920185,3.03143125 C48.7159866,2.93174375 48.2644643,2.84655625 48.0414452,2.82118125 L48.0414452,2.54749375 L52.3775217,2.54749375 C54.1397382,2.54749375 55.2785981,3.25436875 55.2785981,4.60649375 C55.2785981,6.36461875 53.5803624,7.20924375 51.829114,7.20924375 L51.0430631,7.20924375 L51.0430631,9.95880625 C51.0430631,10.2324937 51.1289803,10.4554312 51.4178083,10.5678062 C51.5805025,10.6294312 52.0905217,10.7164312 52.3775217,10.7399937 L52.3775217,11.0118687 L48.0670376,11.0118687 L48.0670376,10.7399937 Z M51.4781331,6.82499375 C53.0776554,6.82499375 53.4176682,5.73568125 53.4176682,4.90193125 C53.4176682,3.82711875 53.0301268,2.90999375 51.6901841,2.90999375 L51.0430631,2.90999375 L51.0430631,6.82499375 L51.4781331,6.82499375 Z" id="Fill-12"></path>
                <path d="M59.2655217,10.7399937 C59.4903688,10.7164312 60.0661968,10.6529937 60.2398592,10.5786812 C60.5396554,10.4699312 60.6292287,10.2578687 60.6292287,9.97330625 L60.6292287,3.66580625 C60.6292287,3.39211875 60.5524516,3.18186875 60.2398592,3.05499375 C60.0040439,2.95711875 59.4903688,2.84655625 59.2655217,2.82118125 L59.2655217,2.54749375 L66.3655726,2.54749375 L66.3655726,4.60649375 L66.0273879,4.60649375 C65.8793178,4.05005625 65.2157446,3.04411875 64.6289484,2.95711875 C64.3273242,2.92268125 63.9909675,2.90999375 63.6034261,2.90999375 L62.2909038,2.90999375 L62.2909038,6.44074375 L63.2286809,6.44074375 C63.9141904,6.44074375 64.1408656,6.22868125 64.3035599,6.06918125 C64.5156108,5.86074375 64.6911013,5.23724375 64.7276618,4.91643125 L65.0658465,4.91643125 L65.0658465,8.39824375 L64.7276618,8.39824375 C64.6911013,8.02668125 64.4772223,7.37055625 64.3035599,7.18386875 C64.1280694,7.00080625 63.8904261,6.81230625 63.2286809,6.81230625 L62.2909038,6.81230625 L62.2909038,9.55280625 C62.2909038,10.5188687 62.5029548,10.6421187 63.7021395,10.6421187 C64.4900185,10.6421187 65.3400503,10.6529937 65.6398465,10.3575562 C66.0767446,9.92255625 66.5648274,8.93293125 66.7165535,8.53418125 L67.0291459,8.53418125 L66.8664516,11.0118687 L59.2655217,11.0118687 L59.2655217,10.7399937 Z" id="Fill-14"></path>
                <path d="M72.7775548,4.27226875 L72.7775548,8.64583125 C72.7775548,9.59920625 72.9274529,10.1230188 73.2016567,10.3459563 C73.4155357,10.5199563 74.2015866,10.7157063 74.4282618,10.7410813 L74.4282618,11.0147688 L70.7393064,11.0147688 L70.7393064,10.7410813 C70.9513573,10.7157063 71.6770834,10.5543938 71.8909624,10.4057688 C72.1761344,10.1955188 72.2876439,9.66264375 72.2876439,8.70926875 L72.2876439,4.37195625 C72.2876439,4.00039375 72.1651662,3.62520625 71.9019306,3.39139375 C71.6149306,3.14489375 71.0391025,2.89658125 70.638765,2.83314375 L70.638765,2.54858125 L73.4520962,2.54858125 L78.3384083,8.70926875 L78.3384083,4.89214375 C78.3384083,3.97501875 78.1903382,3.40226875 77.9161344,3.20651875 C77.6912873,3.04520625 76.9381408,2.84583125 76.6895293,2.82226875 L76.6895293,2.54858125 L80.3638605,2.54858125 L80.3638605,2.82226875 C80.1518096,2.84583125 79.464472,2.97089375 79.2158605,3.14489375 C78.9142363,3.35333125 78.8155229,3.94964375 78.8155229,4.81601875 L78.8155229,11.0763938 L78.177542,11.0763938 L72.7775548,4.27226875 Z" id="Fill-16"></path>
                <path d="M84.0884624,10.7399937 C84.3407299,10.7273062 84.8379529,10.6674937 85.0024752,10.6058687 C85.3004433,10.4916812 85.3900166,10.2687437 85.3900166,9.99686875 L85.3900166,3.66580625 C85.3900166,3.39211875 85.3004433,3.15468125 85.0024752,3.03143125 C84.7136471,2.89549375 84.3626662,2.84655625 84.1396471,2.82118125 L84.1396471,2.54749375 L88.2618446,2.54749375 C90.013093,2.54749375 92.9653541,3.44286875 92.9653541,6.83768125 C92.9653541,9.72499375 90.4755834,11.0118687 88.0150611,11.0118687 L84.0884624,11.0118687 L84.0884624,10.7399937 Z M91.0642076,6.82499375 C91.0642076,4.56843125 89.8778191,2.92268125 88.004093,2.92268125 C87.7372013,2.92268125 87.3021312,2.93174375 87.0498637,2.94443125 L87.0498637,9.74855625 C87.0900803,10.3321812 87.4392331,10.6421187 88.2508764,10.6421187 C90.2160038,10.6421187 91.0642076,9.05618125 91.0642076,6.82499375 L91.0642076,6.82499375 Z" id="Fill-18"></path>
                <path d="M97.0882828,10.7399937 C97.3131299,10.7164312 97.8871299,10.6529937 98.0626204,10.5786812 C98.3624166,10.4699312 98.4501618,10.2578687 98.4501618,9.97330625 L98.4501618,3.66580625 C98.4501618,3.39211875 98.3752127,3.18186875 98.0626204,3.05499375 C97.8268051,2.95711875 97.3131299,2.84655625 97.0882828,2.82118125 L97.0882828,2.54749375 L104.186506,2.54749375 L104.186506,4.60649375 L103.851977,4.60649375 C103.700251,4.05005625 103.038506,3.04411875 102.453538,2.95711875 C102.153741,2.92268125 101.815557,2.90999375 101.424359,2.90999375 L100.111837,2.90999375 L100.111837,6.44074375 L101.049614,6.44074375 C101.736952,6.44074375 101.963627,6.22868125 102.124493,6.06918125 C102.336544,5.86074375 102.51569,5.23724375 102.548595,4.91643125 L102.890436,4.91643125 L102.890436,8.39824375 L102.548595,8.39824375 C102.51569,8.02668125 102.301811,7.37055625 102.124493,7.18386875 C101.950831,7.00080625 101.711359,6.81230625 101.049614,6.81230625 L100.111837,6.81230625 L100.111837,9.55280625 C100.111837,10.5188687 100.325716,10.6421187 101.526729,10.6421187 C102.31278,10.6421187 103.162811,10.6529937 103.46078,10.3575562 C103.90499,9.92255625 104.387589,8.93293125 104.537487,8.53418125 L104.850079,8.53418125 L104.687385,11.0118687 L97.0882828,11.0118687 L97.0882828,10.7399937 Z" id="Fill-20"></path>
                <path d="M110.600316,4.27226875 L110.600316,8.64583125 C110.600316,9.59920625 110.750214,10.1230188 111.024418,10.3459563 C111.238297,10.5199563 112.02252,10.7157063 112.249195,10.7410813 L112.249195,11.0147688 L108.562068,11.0147688 L108.562068,10.7410813 C108.777775,10.7157063 109.498017,10.5543938 109.711896,10.4057688 C110.000724,10.1955188 110.112233,9.66264375 110.112233,8.70926875 L110.112233,4.37195625 C110.112233,4.00039375 109.987927,3.62520625 109.724692,3.39139375 C109.437692,3.14489375 108.863692,2.89658125 108.461526,2.83314375 L108.461526,2.54858125 L111.276685,2.54858125 L116.161169,8.70926875 L116.161169,4.89214375 C116.161169,3.97501875 116.013099,3.40226875 115.740724,3.20651875 C115.51222,3.04520625 114.760902,2.84583125 114.51229,2.82226875 L114.51229,2.54858125 L118.186622,2.54858125 L118.186622,2.82226875 C117.974571,2.84583125 117.289061,2.97089375 117.036794,3.14489375 C116.735169,3.35333125 116.636456,3.94964375 116.636456,4.81601875 L116.636456,11.0763938 L116.002131,11.0763938 L110.600316,4.27226875 Z" id="Fill-22"></path>
                <path d="M123.235811,10.7399937 C123.462486,10.7273062 124.084015,10.6421187 124.250365,10.5786812 C124.548333,10.4699312 124.637906,10.2324937 124.637906,9.95880625 L124.637906,2.90999375 L124.19918,2.90999375 C123.908524,2.90999375 123.522811,2.92268125 123.235811,2.95711875 C122.698371,3.03143125 122.022002,4.22224375 121.87576,4.76780625 L121.563168,4.76780625 L121.563168,2.54749375 L129.372492,2.54749375 L129.372492,4.76780625 L129.061728,4.76780625 C128.910002,4.22224375 128.237289,3.03143125 127.701677,2.95711875 C127.411021,2.92268125 127.061868,2.90999375 126.734652,2.90999375 L126.297754,2.90999375 L126.297754,9.89899375 C126.297754,10.1708687 126.398295,10.3974312 126.685295,10.5188687 C126.835193,10.5786812 127.473174,10.7164312 127.701677,10.7399937 L127.701677,11.0118687 L123.235811,11.0118687 L123.235811,10.7399937 Z" id="Fill-24"></path>
                <path d="M133.687912,10.0053875 C133.687912,9.3402 134.23632,8.8163875 134.892581,8.8163875 C135.548842,8.8163875 136.09725,9.3402 136.09725,10.0053875 C136.09725,10.6723875 135.548842,11.185325 134.892581,11.185325 C134.23632,11.185325 133.687912,10.6723875 133.687912,10.0053875" id="Fill-26"></path>
                <path d="M149.438545,8.92386875 C149.312411,9.29361875 149.250259,9.62168125 149.250259,9.83736875 C149.250259,10.3956187 150.454927,10.6258062 150.985055,10.6747437 L150.985055,11.0118687 L146.734896,11.0118687 L146.734896,10.6747437 C147.016411,10.6421187 147.497182,10.5478687 147.782354,10.3793062 C148.173552,10.1473062 148.438615,9.71230625 148.657978,9.17218125 C149.482418,7.17118125 151.310443,2.49311875 152.204348,0.26374375 L153.06352,0.26374375 C154.280985,3.28336875 156.282673,8.53418125 156.734195,9.63618125 C156.860329,9.94430625 157.002915,10.1636187 157.35938,10.3793062 C157.640896,10.5478687 158.079622,10.6421187 158.361138,10.6747437 L158.361138,11.0118687 L153.06352,11.0118687 L153.06352,10.6747437 C153.591819,10.6258062 154.611857,10.4427437 154.611857,10.0512437 C154.611857,9.94430625 154.593577,9.82105625 154.547876,9.71230625 L153.624724,7.32524375 L150.014373,7.32524375 C149.705437,8.17711875 149.469622,8.79880625 149.438545,8.92386875 L149.438545,8.92386875 Z M153.407189,6.77061875 L151.783902,2.67980625 C151.283023,3.96668125 150.688915,5.53086875 150.219112,6.77061875 L153.407189,6.77061875 Z" id="Fill-28"></path>
                <path d="M161.736769,10.7399937 C161.956132,10.7164312 162.493572,10.6529937 162.658094,10.5913687 C162.95789,10.4699312 163.045636,10.2469937 163.045636,9.97330625 L163.045636,3.67668125 C163.045636,3.40299375 162.974343,3.19274375 162.658094,3.05499375 C162.435075,2.95711875 161.956132,2.84655625 161.736769,2.82118125 L161.736769,2.54749375 L165.996069,2.54749375 L165.996069,2.82118125 C165.769394,2.84655625 165.321527,2.92268125 165.09668,2.99699375 C164.78226,3.09486875 164.710967,3.34136875 164.710967,3.61505625 L164.710967,9.55280625 C164.710967,10.5678062 164.884629,10.6529937 166.118546,10.6529937 C166.796744,10.6529937 167.569999,10.6203687 167.835062,10.3448687 C168.20798,9.95880625 168.78198,8.99455625 168.959298,8.48524375 L169.257266,8.48524375 L169.085432,11.0118687 L161.736769,11.0118687 L161.736769,10.7399937 Z" id="Fill-30"></path>
                <path d="M172.983331,3.68828125 C172.895585,3.42728125 172.784076,3.23153125 172.506216,3.05571875 C172.281369,2.93246875 171.94684,2.83096875 171.709197,2.82190625 L171.709197,2.54821875 L175.747305,2.54821875 L175.747305,2.82190625 C175.306751,2.85815625 174.621241,2.98140625 174.621241,3.27865625 C174.621241,3.35115625 174.645006,3.51609375 174.670598,3.60128125 C174.796732,4.03628125 175.683324,6.81303125 176.37249,8.89559375 L178.010401,4.46040625 C177.931796,3.95109375 177.770929,3.35115625 177.306611,3.06840625 C177.096388,2.93246875 176.670458,2.83096875 176.434643,2.82190625 L176.434643,2.54821875 L180.582432,2.54821875 L180.582432,2.82190625 C180.145534,2.85815625 179.397872,2.98140625 179.397872,3.27865625 C179.397872,3.36746875 179.419808,3.50159375 179.445401,3.60128125 C179.571534,4.00003125 180.507483,6.78765625 181.209445,8.85934375 C181.759681,7.39665625 182.44519,5.39928125 182.682834,4.64346875 C182.87112,4.03628125 182.946069,3.70278125 182.946069,3.49253125 C182.946069,3.05571875 182.134426,2.87265625 181.558598,2.82190625 L181.558598,2.54821875 L184.920337,2.54821875 L184.920337,2.82190625 C184.693662,2.84546875 184.370101,2.94696875 184.12149,3.08109375 C183.794273,3.25690625 183.58405,3.66471875 183.40856,4.13596875 C182.984458,5.26153125 181.558598,9.23090625 180.871261,11.1140938 L180.194891,11.1140938 C179.595299,9.19103125 178.657522,6.22940625 178.259012,5.05128125 L176.019681,11.1140938 L175.332343,11.1140938 C174.586509,8.71071875 173.246566,4.54559375 172.983331,3.68828125" id="Fill-32"></path>
                <path d="M188.696489,9.3398375 C188.59412,9.6389 188.546591,9.8999 188.546591,10.0720875 C188.546591,10.519775 189.506304,10.70465 189.934062,10.7409 L189.934062,11.012775 L186.532107,11.012775 L186.532107,10.7409 C186.755126,10.715525 187.144496,10.6412125 187.369343,10.5070875 C187.681935,10.3204 187.897642,9.9742125 188.069476,9.5392125 C188.734878,7.9405875 190.193642,4.197775 190.906572,2.4124625 L191.595738,2.4124625 C192.571903,4.828525 194.169597,9.0317125 194.531546,9.910775 C194.633916,10.1590875 194.745425,10.331275 195.034254,10.5070875 C195.259101,10.6412125 195.606425,10.715525 195.833101,10.7409 L195.833101,11.012775 L191.595738,11.012775 L191.595738,10.7409 C192.019839,10.70465 192.833311,10.5542125 192.833311,10.2460875 C192.833311,10.1590875 192.820515,10.0594 192.780298,9.9742125 L192.043604,8.06565 L189.157152,8.06565 C188.906712,8.7453375 188.720254,9.2419625 188.696489,9.3398375 L188.696489,9.3398375 Z M191.871769,7.6179625 L190.568387,4.3464 C190.171706,5.3740875 189.696419,6.6247125 189.319846,7.6179625 L191.871769,7.6179625 Z" id="Fill-34"></path>
                <path d="M200.207383,10.7399937 C200.430402,10.7273062 201.068383,10.6529937 201.232905,10.5913687 C201.534529,10.4789937 201.618618,10.2469937 201.618618,9.97330625 L201.618618,8.02668125 C201.618618,7.64243125 201.519905,7.38143125 201.254841,6.91380625 C200.806975,6.04199375 200.008128,4.56843125 199.593166,3.87424375 C199.384771,3.50268125 199.105083,3.20543125 198.816255,3.03143125 C198.595064,2.90999375 198.258708,2.83205625 198.021064,2.82118125 L198.021064,2.54749375 L202.43209,2.54749375 L202.43209,2.82118125 C201.995192,2.84655625 201.179892,2.95711875 201.179892,3.23080625 C201.179892,3.37761875 202.156058,5.25174375 203.119427,6.91380625 C203.667835,6.02024375 205.106491,3.64043125 205.106491,3.37761875 C205.106491,3.00786875 204.395389,2.85743125 203.830529,2.82118125 L203.830529,2.54749375 L207.04237,2.54749375 L207.04237,2.82118125 C206.821179,2.84655625 206.492134,2.97161875 206.3203,3.06949375 C205.978459,3.26705625 205.795657,3.45193125 205.545217,3.80174375 C205.170472,4.32193125 204.229039,5.89518125 203.693427,6.85036875 C203.358899,7.43218125 203.282122,7.80374375 203.282122,8.37286875 L203.282122,9.91168125 C203.282122,10.1835562 203.382663,10.4064937 203.667835,10.5297437 C203.821389,10.5913687 204.457542,10.7273062 204.680561,10.7399937 L204.680561,11.0118687 L200.207383,11.0118687 L200.207383,10.7399937 Z" id="Fill-36"></path>
                <path d="M211.37022,10.5542125 L210.955259,11.1233375 L210.531157,11.1233375 L210.456208,8.127275 L210.757832,8.127275 C211.244087,9.3905875 212.147131,10.79165 213.594927,10.79165 C214.631418,10.79165 215.170685,10.1464 215.170685,9.2528375 C215.170685,8.5097125 214.719163,8.0022125 213.881927,7.692275 C213.256743,7.45665 212.744896,7.28265 212.181864,7.0488375 C211.169138,6.61565 210.682883,5.83265 210.682883,4.756025 C210.682883,3.429275 211.744966,2.3617125 213.37008,2.3617125 C214.143335,2.3617125 214.90745,2.6589625 215.344348,2.958025 L215.719093,2.42515 L216.155991,2.42515 L216.205348,5.299775 L215.918348,5.299775 C215.358972,3.7500875 214.616794,2.75865 213.317068,2.75865 C212.697367,2.75865 212.04659,3.219025 212.04659,4.0727125 C212.04659,4.8158375 212.459724,5.2508375 213.256743,5.6079 C213.845367,5.872525 214.432163,6.0429 214.91659,6.2549625 C215.945768,6.699025 216.603857,7.2590875 216.603857,8.57315 C216.603857,10.0829625 215.36994,11.186775 213.605896,11.186775 C212.459724,11.186775 211.781526,10.8260875 211.37022,10.5542125" id="Fill-38"></path>
                <path d="M221.294022,10.0053875 C221.294022,9.3402 221.844258,8.8163875 222.498691,8.8163875 C223.15678,8.8163875 223.701532,9.3402 223.701532,10.0053875 C223.701532,10.6723875 223.15678,11.185325 222.498691,11.185325 C221.844258,11.185325 221.294022,10.6723875 221.294022,10.0053875" id="Fill-40"></path>
            </g>
        </g>
    </g>
</svg>