<svg width="376" height="38" viewBox="0 0 376 38" xmlns="http://www.w3.org/2000/svg"><title>smh</title><g fill="#FFF" fill-rule="evenodd"><path d="M97.991 9.906l-3.393 2.182 1.197.981-.004 12.908c-.005 1.15-.977 1.95-2.346 1.947-.006 0-.351.012-.584-.037l-.007-16.108-2.952-1.885-3.73 2.386.196.325s.666-.423.8-.511c0 0 1.327 1.192 1.329 2.328l.001 13.476c-1.505.43-3.043 1.608-3.05 4.305-.002 1.259 1.1 2.878 3.136 3.141 1.08.163 4.171-.277 4.258-.292.425-.064.97-.145 2.518-.206 1.306-.054 2.145.478 2.567.925.095.102.204.198.333.325l.03-.03c.4-.393.75-1.26.75-1.854 0-1.297-.56-2.233-1.56-2.78-.694-.38-1.584-.521-2.743-.521-.064 0-.38.013-.819.065-.537.063-1.272.128-1.907.189-.957.093-1.94.214-2.59.293-.432.053-.717.094-.836.094-.509.004-.862-.167-1.148-.439a1.17 1.17 0 0 1-.372-.783c.104-1.16 1.59-1.657 2.046-1.685a4.33 4.33 0 0 1 .478.005c.866.194 2.83.5 4.952.508.676.001 1.378-.149 2.086-.434a7.096 7.096 0 0 0 1.865-1.12c.557-.468.861-.844 1.182-1.398a3.585 3.585 0 0 0 .504-1.866 8084.5 8084.5 0 0 1 0-13.03L97.99 9.905m1.963 1.549l1.18-.742m29.41 15.122l-.762.498s-.624-.522-.64-.534V11.49l-2.525-1.648-4.6 2.96-.127-.27c-.601-1.614-1.563-2.177-1.988-2.563l-.026-.022-4.363 2.814.183.289s.502-.297.72-.448c.44.445 1.204 1.689 1.201 2.183v10.783l-1.184.965 3.377 2.192 3.377-2.15-1.178-.985-.007-11.927 1.142-.73 1.65 1.786.002 11.104c-.005 1.321 1.092 2.257 1.853 2.887.002.002 4.086-2.62 4.086-2.62l-.191-.255m-1.645-14.173l1.18-.741M41.203 26.66l1.182-.741m7.748.115s-1.07.631-1.23.738c0 0-2.393-1.689-2.424-1.706V19.78l5.952-3.874-3.39-6.12-7.08 4.573v11.8c1.33.934 4.306 2.627 4.306 2.627l4.057-2.536-.191-.215zm-3.654-13.447l2.773 4.614-2.78 1.812.007-6.426zm84.891 14.177l1.177-.743m91.729-15.636s-3.047 1.976-3.571 2.29c-.138-.21-.575-1.709-2.186-2.826-.497.323-4.142 2.678-4.142 2.678l.164.255s.523-.33.618-.394l.288.197c.513.469.709.808.709 1.05v11.466l-1.243 1 3.454 2.608s3.678-2.5 3.565-2.456l-1.338-1.135V13.689l.761-.472 1.71 2.127s-.177.249-.273.37c-.275.36-.7.9-.692 1.646.002.279.334.94.845.94l.091-.002c.34-.015.448-.073.717-.168l.139-.049-.144-.033a1.418 1.418 0 0 1-.563-.261c-.004-.005-.043-.027-.054-.038-.186-.169-.384-.47-.384-.697 0-.403.256-.908.76-1.5.837-.944 2.815-2.343 2.815-2.343l-2.046-2.824m150.381 2.325l1.18-.742m-13.056 14.643l1.18-.741"/><path d="M82.111 25.028c-2.254-1.563-4.862-2.71-7.302-3.367l-.067-.021 2.689-3.877c3.427.721 5.765 2.549 5.765 4.434 0 .84-.398 1.962-1.053 2.79l-.032.041zm-6.25-12.672a54.691 54.691 0 0 1-2.353-.394c-1.23-.246-7.362-2.002-7.362-4.625 0-2.98 3.964-2.98 5.867-2.98.42 0 4.884.377 6.99 3.183-.022.04-2.58 3.97-3.142 4.816zM89.314 8.32l.062-.049c.301-.28.583-.854.583-1.198 0-.4-.153-.764-.426-1.03-.265-.29-.676-.455-1.22-.493a16.452 16.452 0 0 0-.329-.016c-1.333.012-2.77.823-4.285 2.245-1.331 1.248-1.833 2.173-2.674 3.455-.682 1.042-1.009 1.535-1.191 1.817a52.676 52.676 0 0 1-3.186-.558c.445-.7 1.76-2.932 3.253-5.018 1.085-1.516 2.397-2.889 3.054-3.67.103-.122.203-.194.323-.26.09-.048.222-.113.266-.162.005-.058-.174-.23-.205-.252a.641.641 0 0 0-.216.066c-.101.047-.238.111-.427.111-.24 0-.488-.198-.938-.558-1.132-.905-3.239-2.583-6.94-2.59-6.343-.009-10.086 5.214-10.04 8.672.03 2.154.455 4.52 1.567 5.516 1.135 1.015 3.046 1.756 6.387 2.523l.225.057-.536.575c-.879.723-1.51 1.419-3.159 1.458-1.042 0-1.528-.345-1.9-.668l-.08.032c.088.17.315.548.608.896.376.44.72.672 1.03.688.05.013.487.12 1.192-.092.912-.276 1.896-.936 2.846-1.97l.367-.397.368-.395 2.386.41c.272.06.54.09.776.157l-.983 1.445c-1.239 1.807-1.713 2.371-1.713 2.371s-.827-.115-1.045-.156c-.68-.131-1.75-.197-3.23-.185-2.896-.026-6.897 1.009-9.31 3.331-.497.48-.907.998-1.22 1.543a5.884 5.884 0 0 0-.849 3.066c0 1.407.959 3.05 3.666 3.05 3.622 0 6.773-3.306 8.436-5.083l.266-.287c.495-.524.722-.891.902-1.079 1.916.513 5.028 1.768 7.752 3.495.553-.545 2.18-2.416 3.703-4.606.836-1.201 2.764-3.995 2.832-6.138.068-2.053-1.92-4.519-5.595-5.25.118-.237.337-.6.888-1.423C82.865 9.453 84.23 7.1 87.102 7.1c.514 0 1.583.113 2.162 1.153.017.024.027.04.05.065zM67.805 28.926a14.565 14.565 0 0 1-2.09 1.45 9.124 9.124 0 0 1-2.144.839 6.397 6.397 0 0 1-1.492.196 5.09 5.09 0 0 1-.439-.022c-1.468-.14-2.383-.982-2.383-2.202 0-3.234 5.612-4.239 7.656-4.239l.431-.002c.936-.007 1.592.057 3.429.415l.385.099a24.386 24.386 0 0 1-2.671 2.859c-.232.21-.448.415-.682.607zm-42.307-8.007l-.065-.011c-2.556 3.066-4.86 4.036-5.238 4.18l.001-16.068h-.02c2.961-.127 5.002-1.77 5.002-4.458a3.807 3.807 0 0 0-.226-1.193c-.832 1.018-2.256 1.318-3.121 1.318-2.13 0-4.423-.631-6.848-1.3C12.436 2.685 9.8 1.96 7.233 1.96c-3.74 0-8.105 1.693-8.105 6.462 0 1.72 1.22 4.93 4.156 6.404l.125.066s-.703 1.5-.703 2.815c0 4.6 2.972 11.626 11.343 11.626 2.014 0 3.87-.442 5.516-1.312 1.318-.695 2.504-1.665 3.528-2.882 1.74-2.072 2.411-4.17 2.418-4.19l-.013-.03zm-13.77 3.889c.165-.1.342-.22.342-.22 2.784-1.771 4.135-3.418 4.135-5.036V8.582s1.392.367 3.328.422l.022 16.323c-3.042 1.022-6.411.3-7.827-.52zm.186-2.68c-.042.682-.271 1.424-.833 2.33l-.21-.13c-2.845-1.778-4.247-5.282-4.428-9.013C6.31 12.597 7.77 9.08 9.9 6.83c.242.072 1.42.36 2 .614l.013 6.826v7.859zM9.248 6.655c-4.29 4.174-5.674 7.834-5.674 7.834l-.18-.084c-1.235-.606-1.82-2.123-1.883-3.422-.149-3.142 2.16-4.546 5.248-4.564.957-.006 2.07.117 2.489.236zM246.257 9.73c-.064.045-4.106 2.726-4.106 2.726l.172.335s.564-.356.66-.42l.266.172c.514.47.683.78.683 1.022v12.91l2.2 2.225 4.198-2.205-.317-.434s-.585.286-.606.295l-1.038-1.06s-.003-13.377-.001-13.8c-.03-.018-2.062-1.72-2.111-1.765m-2.403-4.572l-.018-.015.018-.011 2.683-2.032 2.35 2.233-2.704 1.903-.01.008-2.319-2.086m-89.568 4.653l-3.393 2.183 1.198.979-.003 12.91c-.006 1.15-.979 1.952-2.347 1.947-.005 0-.353.012-.585-.037l-.007-16.109-2.952-1.884-3.745 2.393.196.326s.681-.432.816-.52c0 0 1.326 1.194 1.328 2.328l.005 13.548c-1.505.428-3.047 1.536-3.052 4.233-.004 1.258 1.098 2.878 3.134 3.142 1.079.163 4.171-.279 4.26-.292.422-.064.969-.145 2.516-.207 1.306-.053 2.145.478 2.569.926.093.102.2.198.33.323l.033-.026c.399-.397.747-1.262.747-1.856 0-1.297-.558-2.233-1.558-2.78-.695-.38-1.585-.523-2.744-.523-.065 0-.382.014-.817.066-.538.064-1.273.126-1.909.188-.955.093-1.94.215-2.59.295-.432.052-.715.093-.836.094-.509.004-.932-.157-1.22-.427a1.338 1.338 0 0 1-.39-.847c.102-1.157 1.537-1.653 1.994-1.68a9.92 9.92 0 0 1 .647.03c.925.166 2.804.52 4.924.528.68.002 1.38-.147 2.087-.433a7.07 7.07 0 0 0 1.864-1.12c.558-.467.862-.843 1.184-1.396a3.593 3.593 0 0 0 .503-1.87c-.003-1.867-.003-11.264 0-13.028l-2.187-1.404m140.484 8.12c.234-.005.76.034.928.1.247.098.364.25.416.378.043.108.06 4.122.06 4.122 0 .778-.103 1.095-.29 1.412 1.564-.76 3.378-2.312 3.906-3.3.644-1.242.592-3.714.538-6.333-.061-2.98-.132-6.359.796-8.853-1.147.72-1.856 1.325-2.726 2.197-.904.911-1.558 1.71-1.764 2.215-.62 1.497-.46 3.775-.466 4.258-4.791.498-5.682 2.631-5.601 4.459a7.3 7.3 0 0 0 .116.632l.057.264c.973-1.237 2.307-1.511 4.03-1.55m-4.046-12.866c.187 0 1.015.178 2.856.583 1.008.22 2.255.496 2.412.507h.967c1.034 0 3.19-1.238 5.77-3.311l.451-.352c-.628.259-1.297.524-2.064.524-1.083 0-2.376-.406-3.745-.834-1.454-.455-2.96-.927-4.279-.927-2.895 0-4.837 1.708-4.837 4.254 0 .59.243 1.264.654 1.799a2.193 2.193 0 0 1-.165-.707c0-.963.742-1.536 1.98-1.536M312.582.054c.647.292 1.522.833 2.013 1.787-1.434 1.013-3.301 2.333-3.884 2.716-1.046-1.246-2.524-2.844-3.6-2.91 0 0-.744-.014-.95.112-.291.176-.328.444-.32.665v9.398l4.129-2.538 3.266 3.189v10.52c0 2.983-2.153 6.208-6.433 8.979 1.383.412 3.745.715 6.546.144-1.575 2.291-3.37 3.436-5.338 3.399-.268-.017-.781-.066-1.21-.222-2.298-.84-3.9-.327-3.934-.352 1.971-1.582 3.404-3.109 4.382-4.667.992-1.579 1.492-3.503 1.537-5.168l-.005-10.369-2.944-2.068-.019 1.01c.014.077.021.068.02.19-.01 2.652.03 5.055-.613 6.299-.528.987-2.342 2.538-3.908 3.298.19-.316.291-.635.291-1.412l.006-13.383c0-.218.067-1.43.094-1.608.256-1.76.643-3.574 3.455-5.474 2.108-1.422 3.846-2.055 5.152-2.055.697 0 1.545.195 2.267.52M40.475 26.73l-.007.066c-.269.187-2.303 1.531-2.927 2.015a6.827 6.827 0 0 0-1.89 1.895c-.427.687-.65 1.384-.683 2.129a.95.95 0 0 0 .279.737c.416.423 1.179.536 1.564.536.112 0 .328-.001.525-.012.278-.017.426-.036.625-.084l-.015.069c-.07.283-.321.555-.715.761a2.498 2.498 0 0 1-1.095.289c-1.448 0-1.974-1.22-1.974-2.042 0-1.206 1.554-3.374 2.59-4.281 0 0-1.85-1.453-1.855-2.63V14.64l-1.66-1.796-1.128.72v12.004c.067.075 1.183.978 1.183.978l-3.379 2.153-3.391-2.184 1.196-.973-.003-18.713.003-1.029c-.018-.99-.105-2.39-.435-2.748-.203-.22-.472-.373-.813-.582.3-.91.854-1.286 1.751-1.286.213 0 .907.107 1.334.316.307-.678 1.014-1.766 2.38-1.766.256 0 .768.167 1.068.373-.983 1.039-.892 3.407-.892 4.775v7.895l4.577-2.945 2.648 1.68v12.945c0 1.085.605 1.717 1.14 2.274m321.187-.904l.173.263-4.144 2.608-3.265-2.182 1.076-.968V5.667l.006-.337c-.018-.99-.104-2.39-.437-2.749-.201-.217-.469-.372-.81-.58.299-.914.853-1.286 1.75-1.286.214 0 .811.083 1.237.29.599-.497 1.113-1.41 2.478-1.41.255 0 .768.165 1.067.375-.6.633-.8 1.643-.864 2.645-.067 5.552-.04 22.983-.04 22.983l.905.79.868-.561M39.096 11.659l1.18-.743m73.628 1.704l1.178-.742M101.998 26.5l1.179-.745m53.1-14.415l1.179-.742m54.962 1.803l1.18-.742M200.53 26.788l1.18-.743M248.115 11.6l1.18-.742M243.05 27.01l1.178-.74m34.351-13.748l1.18-.742m71.375.148l1.18-.743m11.304-8.991c-.022.596-.005 4.493.006 5.458.864.787 2.854 2.6 3.73 3.39-.882.751-2.55 1.633-3.836 1.96-.045.009.159.383.159.811v12.245l3.804 2.761c3.592-2.25 6.148-2.817 7.39-3.055l.035-13.213-11.288-10.357zm4.741 9.735l2.252 2.08.001 12.17-2.62-1.78V12.204l.367-.275zM209.86 9.715c-1.597 1.023-6.098 2.93-8.57 3.422-.046.008.158.383.158.812v12.245l3.804 2.761c3.592-2.25 6.146-2.817 7.388-3.055l.037-13.658-2.816-2.527zm-3.787 2.627l2.31 2.464v11.429l-2.62-1.781V12.479l.31-.137zM102.828 2.122c-.022.595-.004 4.494.005 5.457.865.788 2.857 2.601 3.733 3.392-.883.75-2.55 1.632-3.836 1.957-.045.009.159.384.159.812v12.247l3.804 2.76c3.59-2.25 6.146-2.817 7.388-3.056l.037-13.212-11.29-10.357zm4.742 9.735l2.252 2.079.001 12.171-2.619-1.781V12.132l.366-.275zm244.17 14.56l1.18-.741m-131.202.516l.875-.617m129.15.437c-.243-.302-.433-.725-.39-1.027V11.79c-.226-.211-2.218-2.016-2.218-2.016l-3.44 2.629-2.559-2.435-3.35 2.572 2.31 2.496c-.355.499-1.337 2.36-.2 3.855.236.31.312.432.312.432l-.324.124c-2.127.642-3.665 2.942-3.714 4.605 0 1.372.692 3.723 2.643 4.727l5.96-3.6.031.427c.069.967.658 2.02 1.663 3.233l3.551-2.447-.275-.38zm-5.032-1.703l-2.823 1.705a4.082 4.082 0 0 1-1.88-1.838c-.379-.758-.576-1.638-.581-2.34 0 0-.02-.883.376-1.363.187-.224.424-.385.54-.456.177-.108.411-.128.556-.021 1.047.778 2.297.887 3.753.93l.059 3.383zm-.973-11.209l.956.957-.007 6.069c-1.56.044-2.802-.277-3.415-.797-2.557-2.17-.327-5.071 2.466-6.229zM241.599 25.86l-.761.499s-.626-.524-.642-.536V11.514l-2.524-1.647-4.6 2.96-.127-.273c-.601-1.61-1.563-2.173-1.988-2.56l-.025-.023-4.365 2.814.184.289s.5-.296.719-.448c.442.447 1.204 1.689 1.201 2.183v10.783l-1.184.965 3.378 2.192 3.377-2.15-1.177-.985-.008-11.927 1.141-.729 1.65 1.785.003 11.105c-.006 1.321 1.092 2.258 1.853 2.887.004.002 4.085-2.62 4.085-2.62l-.19-.255m-1.667-14.165l1.18-.742m24.431 14.907l-.762.499s-.623-.524-.64-.536V11.514l-2.524-1.647-4.6 2.96-.127-.273c-.603-1.61-1.565-2.173-1.988-2.56l-.025-.023-4.366 2.814.184.289s.501-.296.72-.448c.441.447 1.204 1.689 1.2 2.183v10.783l-1.183.965 3.378 2.192 3.377-2.15-1.178-.985L257 13.687l1.142-.729s1.64 1.773 1.649 1.785l.004 11.105c-.007 1.321 1.092 2.258 1.853 2.887.002.002 4.086-2.62 4.086-2.62l-.192-.255m-1.644-14.187l1.18-.742"/><path d="M140.469 26.026l-1.23.74s-2.385-1.683-2.417-1.7V19.78l5.953-3.874-3.392-6.12-7.08 4.573v11.8c1.33.934 4.309 2.627 4.309 2.627l4.057-2.536-.2-.223zm-3.647-13.439l2.772 4.614-2.777 1.812.005-6.426zm178.002 14.175l1.18-.742m7.92.038l-1.23.74s-2.385-1.682-2.415-1.698v-5.288l5.951-3.874-3.39-6.12-7.08 4.572v11.802c1.33.932 4.308 2.626 4.308 2.626l4.055-2.538-.199-.222zM320.28 12.62l2.772 4.615-2.778 1.812.006-6.427zm16.193-2.237s-3.047 1.976-3.571 2.29c-.137-.21-.576-1.71-2.184-2.826-.498.323-4.145 2.677-4.145 2.677l.166.257s.522-.33.618-.395l.286.197c.515.47.71.808.71 1.05V25.1l-1.242 1 3.455 2.606s3.675-2.498 3.563-2.455l-1.337-1.136V13.688l.76-.473 1.71 2.128s-.177.248-.271.37c-.277.358-.701.9-.693 1.646.003.279.333.938.845.938l.09-.002c.34-.016.447-.07.717-.166l.14-.049-.145-.035a1.41 1.41 0 0 1-.563-.26c-.005-.004-.042-.027-.054-.038-.185-.169-.384-.47-.384-.696 0-.404.255-.908.76-1.502.838-.942 2.815-2.342 2.815-2.342l-2.046-2.824m-2.578 15.807l.873-.616m-63.263-13.066l3.006 2.671-.001 9.84-.931.752-.075-.03c-1.102-.409-2.457-2.239-2.457-3.263l-.002-9.752.46-.218zm7.302 11.426v-11.55s-2.173-1.904-3.04-2.73c-.727.532-5.129 2.48-9.328 3.683.138.148.415.465.415.465l-.033 7.176c-.025 1.196.01 2.69.451 3.986.483 1.42 1.37 2.495 2.715 3.286l.332.202-6.88 5.63c.059.043.094.739.112.739.14 0 .332-.087.578-.2.522-.238 1.311-.595 2.662-.595 1.875 0 3.86 1.186 4.814 1.757.168.1.341.203.426.245.577-.132 2.78-1.758 4.728-3.478 1.108-.979 2.046-1.909 2.71-2.687.795-.933 1.199-1.642 1.199-2.108 0-.62-.43-1.165-.884-1.742-.434-.55-.977-1.24-.977-2.08zm-3.187 8.978l-.546-.301c-1.376-.756-2.677-1.443-4.16-1.448-.083.011-.217 0-.392.018-.47.051-1.24.161-1.916.305l-.255-.505s5.349-4.38 5.835-4.76c.703.522 1.59 1.62 1.99 2.254.422.664.561 1.338.561 2.08 0 .835-.206 1.357-1.117 2.357zm23.948-9.086c-4.784.153-8.661 4.403-8.6 8.608.024 1.705.642 4.24 3.166 4.24 1.07 0 1.883-.457 1.883-1.87 0-.249-.042-.707-.214-.956-.17.457-1.027 1.58-1.883 1.58-1.84-.042-2.353-1.498-2.353-2.702 0-2.577 1.967-5.572 5.177-5.572 1.798 0 3.552.747 5.306 2.66 0 0 3.788-2.708 3.761-2.74-2.17-2.67-3.447-3.335-6.243-3.248m-118.985-1.343c-.175.693-1.374 3.007-2.698 3.041-1.124.029-1.571.025-2.528-.22a10.252 10.252 0 0 0-1.856-.327c-.316-.025-.598-.04-.813-.04-3.305 0-4.316 2.83-4.322 4.563-.011 3.036 1.454 6.278 5.435 6.237 1.199 0 3.808-.664 3.808-3.036 0-.083-.257-1.454-.942-1.454h-.511c.083.415.383 1.08.383 1.289 0 1.538-2.182 2.368-3.125 2.368-2.137 0-4.15-1.247-4.15-3.824 0-1.415.727-2.897 2.44-2.897 1.497 0 3.318.895 4.773.872 3.322-.056 4.05-2.192 4.106-6.572m-9.308-14.277l.066-.058c-.631-.496-.905-1.105-.905-1.495 0-1.08.939-2.224 2.676-2.224.32 0 1.24.19 2.41.439.499.105 1.066.226 1.171.231 1.436.035 3.709-1.452 5.078-2.908l.069-.075-.06.001c-1.22.003-2.171-.366-3.09-.722-.945-.365-1.92-.745-3.161-.745-2.798 0-5.929 2.066-5.929 4.828 0 .488.576 2.186 1.675 2.728"/><path d="M199.868 25.58s-.432.341-.652.305a1.65 1.65 0 0 1-.443-.17c-.619-.384-1.242-1.183-1.242-2.394V6.251c0-1.042.434-1.672.666-2.008l-.009-.06a62.21 62.21 0 0 1-1.535-1.246c-1.03-.854-2.416-1.895-3.18-2.478 0 0-4.006 3.16-4.287 3.379l-1.851-1.448c-.754-.613-1.891-1.54-2.246-1.766-.584.312-8.921 7.218-8.921 7.218v5.75l-.225.03c-4.652.61-5.014 4.085-5.014 5.135 0 .13.143.673.263 1.098l.03.109.055-.1a4.147 4.147 0 0 1 3.103-2.201c1.497-.202 1.625-.09 1.702-.023l.086.075-.009 6.162c-.023.617-.124.908-.297 1.198 1.621-.786 3.499-2.394 4.046-3.417.668-1.288.625-1.277.625-4.024v-.303h3.88v7.155l-1.351 1.365 4.597 2.972 4.286-3.074-.623-.33s-.17.12-.231.17a.704.704 0 0 1-.415.17c-.456 0-1.772-1.117-1.882-1.402l-.016-7.046 4.217.002v6.722c-.008.475-.022 1.267.534 2.452.114.217 1.45 1.895 2.448 2.396.457-.233 4.338-3.038 4.338-3.038l-.447-.265zm-15.455-12.195h-3.88V5.607l1.626-1.326c.014.013 2.234 1.842 2.254 1.854v7.25zm8.704 0h-4.34V5.503L190.33 4.3l2.787 2.554v6.531z"/></g></svg>