<?xml version="1.0" encoding="UTF-8"?>
<svg width="178px" height="43px" viewBox="0 0 178 43" version="1.1" xmlns="http://www.w3.org/2000/svg" xmlns:xlink="http://www.w3.org/1999/xlink">
    <!-- Generator: Sketch 46.2 (44496) - http://www.bohemiancoding.com/sketch -->
    <title>Logo / WAtoday White</title>
    <desc>Created with Sketch.</desc>
    <defs>
        <polygon id="path-1" points="10.20474 30.8478261 19.5144211 30.8478261 19.5144211 0.272021739 0.895058947 0.272021739 0.895058947 30.8478261 10.20474 30.8478261"></polygon>
    </defs>
    <g id="Logos" stroke="none" stroke-width="1" fill="none" fill-rule="evenodd">
        <g id="Masthead-Logos" transform="translate(-454.000000, -612.000000)">
            <g id="Logo-/-WAtoday" transform="translate(454.000000, 612.000000)">
                <g id="Page-1">
                    <path d="M82.8538474,14.9756848 L82.8538474,26.5445543 C82.8538474,30.3285543 84.1476263,31.0165543 86.0868895,31.0165543 C86.8625947,31.0165543 87.7244895,30.8024891 88.6725737,30.4575543 L89.4051842,32.7804891 C88.4571,33.2964891 87.2935421,33.6834891 86.0437947,33.6834891 C81.9488579,33.6834891 79.9234053,31.2324891 79.9234053,26.8885543 L79.9234053,14.9756848 L76.9498684,14.9756848 L76.9498684,12.3096848 L79.9234053,12.3096848 L79.9234053,7.06275 L82.8538474,7.06275 L82.8538474,12.3096848 L88.9742368,12.3096848 L88.9742368,14.9756848 L82.8538474,14.9756848 Z" id="Fill-1" fill="#FFFFFF"></path>
                    <path d="M101.001416,14.4598717 C96.3031526,14.4598717 93.4158053,18.4158717 93.4158053,22.8028065 C93.4158053,27.1888065 96.3031526,31.1466761 101.001416,31.1466761 C105.699679,31.1466761 108.587026,27.1888065 108.587026,22.8028065 C108.587026,18.4158717 105.699679,14.4598717 101.001416,14.4598717 M111.603658,22.8028065 C111.603658,28.9097413 107.251089,33.8117413 101.001416,33.8117413 C94.7517421,33.8117413 90.3991737,28.9097413 90.3991737,22.8028065 C90.3991737,16.6968065 94.7517421,11.792937 101.001416,11.792937 C107.251089,11.792937 111.603658,16.6968065 111.603658,22.8028065" id="Fill-3" fill="#FFFFFF"></path>
                    <path d="M132.207252,17.7718065 C130.655841,15.7498717 127.939936,14.4598717 125.526631,14.4598717 C120.957652,14.4598717 117.682452,18.2448065 117.682452,22.7168065 C117.682452,27.2327413 120.914557,31.1466761 125.526631,31.1466761 C128.112315,31.1466761 130.999662,29.6407413 132.207252,27.1888065 L132.207252,17.7718065 Z M132.207252,30.5867413 C130.611809,32.6937413 128.026125,33.8117413 125.439504,33.8117413 C119.276957,33.8117413 114.664883,28.8667413 114.664883,22.8897413 C114.664883,16.9108717 119.320052,11.792937 125.482599,11.792937 C127.854683,11.792937 130.396336,12.6968717 132.207252,14.3738717 L132.207252,1.04293696 L135.137694,1.04293696 L135.137694,33.2957413 L132.207252,33.2957413 L132.207252,30.5867413 Z" id="Fill-5" fill="#FFFFFF"></path>
                    <path d="M148.944217,22.8026196 C146.056869,22.8026196 142.694543,23.9636196 142.694543,27.2325543 C142.694543,29.7695543 144.676901,31.4035543 147.134238,31.4035543 C149.54848,31.4035543 151.875596,30.1565543 153.857954,28.2645543 L153.857954,23.4055543 C152.047975,22.9755543 150.452533,22.8026196 148.944217,22.8026196 L148.944217,22.8026196 Z M153.944143,30.8454891 C151.918691,33.0375543 149.462291,33.8115543 147.048985,33.8115543 C143.169522,33.8115543 139.764101,31.5334891 139.764101,27.5756196 C139.764101,22.4156196 144.591648,20.3946196 149.074438,20.3946196 C150.495627,20.3946196 151.961785,20.5666196 153.857954,21.0396196 L153.857954,19.8786196 C153.857954,16.3956196 152.133227,14.4596848 148.470175,14.4596848 C146.013775,14.4596848 143.255712,15.3626848 141.618112,16.2666196 L140.625996,13.6426848 C142.565259,12.7396848 145.840459,11.7936848 148.599459,11.7936848 C154.849133,11.7936848 156.788396,15.0626196 156.788396,20.4806196 L156.788396,33.2964891 L154.159617,33.2964891 L153.944143,30.8454891 Z" id="Fill-7" fill="#FFFFFF"></path>
                    <g id="Group-11" transform="translate(158.326316, 12.038037)">
                        <mask id="mask-2" fill="white">
                            <use xlink:href="#path-1"></use>
                        </mask>
                        <g id="Clip-10"></g>
                        <polygon id="Fill-9" fill="#FFFFFF" mask="url(#mask-2)" points="4.08406947 0.272021739 10.03208 18.0328913 16.3679432 0.272021739 19.5147958 0.272021739 8.09281684 30.8478261 5.59238526 29.8588261 8.39448 22.2908261 0.895058947 0.272021739"></polygon>
                    </g>
                    <path d="M24.2398526,10.4550761 L23.9700421,10.4550761 L15.4251053,33.0712065 C15.2452316,33.5657065 15.0203895,34.1938804 14.3008947,34.1938804 C13.8062421,34.1938804 13.5364316,33.8349239 13.3565579,33.2964891 L3.23772632,4.84638043 C2.78804211,3.59003261 1.97767368,3.2301413 1.39308421,3.2301413 L0.269810526,3.2301413 C0.0449684211,3.2301413 0,3.05159783 0,2.87211957 L0,1.70551087 C0,1.48022826 0.0449684211,1.39142391 0.359747368,1.39142391 C0.719494737,1.39142391 2.11351579,1.52509783 6.74526316,1.52509783 C9.98298947,1.52509783 11.8276316,1.39142391 12.2763789,1.39142391 C12.5911579,1.39142391 12.6361263,1.52509783 12.6361263,1.74944565 L12.6361263,2.87211957 C12.6361263,3.09646739 12.5911579,3.2301413 12.2763789,3.2301413 L11.2880105,3.2301413 C10.5675789,3.2301413 10.1188316,3.85925 10.3886421,4.7566413 L16.5493158,24.3216413 L16.8191263,24.3216413 C17.3587474,22.7951413 22.7558947,8.52661957 22.7558947,6.91038043 C22.7558947,5.7886413 22.3062105,4.62203261 21.9014947,4.08359783 C21.4958421,3.54422826 20.9112526,3.2301413 20.5515053,3.2301413 L19.6530737,3.2301413 C19.4272947,3.2301413 19.3823263,3.14133696 19.3823263,2.87211957 L19.3823263,1.70551087 C19.3823263,1.52509783 19.4272947,1.39142391 19.6971053,1.39142391 C20.1018211,1.39142391 21.6766526,1.52509783 25.6338737,1.52509783 C29.4121579,1.52509783 31.1209579,1.39142391 31.5697053,1.39142391 C31.8395158,1.39142391 31.8844842,1.52509783 31.8844842,1.79431522 L31.8844842,2.91698913 C31.8844842,3.09646739 31.8395158,3.2301413 31.5697053,3.2301413 L30.2215895,3.2301413 C29.5011579,3.2301413 29.0973789,4.21820652 29.3212842,4.98098913 L35.5278632,24.3216413 L35.7976737,24.3216413 C38.0011263,18.2193804 41.9133789,6.8206413 41.9133789,4.39768478 C41.9133789,3.90411957 41.3287895,3.2301413 40.4743895,3.2301413 L39.1712421,3.2301413 C38.9004947,3.2301413 38.8564632,3.09646739 38.8564632,2.82725 L38.8564632,1.70551087 C38.8564632,1.52509783 38.9004947,1.39142391 39.2152737,1.39142391 C39.6649579,1.39142391 41.2397895,1.52509783 44.0278316,1.52509783 C46.5460632,1.52509783 47.8501474,1.39142391 48.2098947,1.39142391 C48.4797053,1.39142391 48.5246737,1.48022826 48.5246737,1.79431522 L48.5246737,2.91698913 C48.5246737,3.09646739 48.5246737,3.2301413 48.2098947,3.2301413 L47.3554947,3.2301413 C46.5900947,3.2301413 45.6907263,3.7246413 45.2419789,4.84638043 C44.7023579,6.28220652 35.6618316,30.6491848 34.7624632,32.8019891 C34.5385579,33.3404239 34.2237789,34.1938804 33.4143474,34.1938804 C32.7838526,34.1938804 32.5149789,33.6105761 32.2901368,32.9824022 L24.2398526,10.4550761 Z" id="Fill-12" fill="#FFFFFF"></path>
                    <path d="M60.0603853,19.20595 L56.6877537,7.31458043 C56.50788,6.64153696 56.4179432,6.32745 56.1931011,6.32745 C55.9232905,6.32745 55.7874484,6.50692826 55.65348,6.91075435 C55.4286379,7.4940587 51.5613537,18.0842109 51.2006695,19.20595 L60.0603853,19.20595 Z M50.61608,21.0007326 C50.2563326,21.9429935 48.0538168,28.0910587 48.0538168,29.5268848 C48.0538168,30.5140152 48.4575958,31.5908848 49.8075853,31.5908848 L51.3805432,31.5908848 C51.8311642,31.5908848 51.8761326,31.770363 51.8761326,31.9498413 L51.8761326,32.9369717 C51.8761326,33.2959283 51.8311642,33.430537 51.47048,33.430537 C50.8858905,33.430537 49.0421853,33.2959283 45.3547747,33.2959283 C42.07208,33.2959283 41.0818379,33.430537 40.45228,33.430537 C40.1824695,33.430537 40.1375011,33.1622543 40.1375011,32.8472326 L40.1375011,31.9947109 C40.1375011,31.7264283 40.1824695,31.5908848 40.45228,31.5908848 L41.6214589,31.5908848 C42.7016379,31.5908848 43.78088,30.9627109 44.6802484,29.6166239 C45.3098063,28.674363 48.5025642,20.8661239 49.9865221,16.9176022 C50.3472063,16.0202109 53.9896484,6.37231957 54.3943642,5.1608413 C54.5292695,4.71121087 54.7541116,4.12790652 54.4393326,3.63527609 C54.3034905,3.45486304 54.1245537,3.23051522 54.1245537,3.05197174 C54.1245537,2.91642826 54.2144905,2.73788478 54.5742379,2.64721087 C56.0132274,2.33312391 58.9361747,1.16651522 59.6116379,0.403732609 C59.8355432,0.179384783 59.9704484,-9.34782609e-05 60.1962274,-9.34782609e-05 C60.4660379,-9.34782609e-05 60.5550379,0.269123913 60.6899432,0.763623913 C61.5443432,3.59040652 65.0528168,13.6421239 65.9072168,16.5137761 C66.9414905,20.0136022 69.8644379,28.3602761 70.4949326,29.5717543 C71.2584589,31.05245 72.4276379,31.5908848 73.1031011,31.5908848 L74.6320274,31.5908848 C74.9018379,31.5908848 74.9468063,31.770363 74.9468063,31.9947109 L74.9468063,32.8472326 C74.9468063,33.11645 74.9018379,33.430537 74.5420905,33.430537 C73.6876905,33.430537 72.7424168,33.2959283 66.9864589,33.2959283 C63.2531432,33.2959283 61.6801853,33.430537 60.7808168,33.430537 C60.3301958,33.430537 60.2852274,33.1622543 60.2852274,32.8472326 L60.2852274,31.9947109 C60.2852274,31.770363 60.3301958,31.5908848 60.5550379,31.5908848 L61.8141537,31.5908848 C63.0292379,31.5908848 63.4339537,31.1421891 63.1641432,29.9755804 C62.7594274,28.3602761 61.0056589,22.616037 60.4660379,21.0007326 L50.61608,21.0007326 Z" id="Fill-14" fill="#FFFFFF"></path>
                </g>
            </g>
        </g>
    </g>
</svg>